<svg width="130" height="20" viewBox="0 0 130 20" fill="none" xmlns="http://www.w3.org/2000/svg">
<path d="M0 4.68664H6.03517V19.4882H10.5604V4.68664H16.5908V0.511719H0V4.68664Z" fill="white"/>
<path d="M37.8297 11.891L34.5068 0.511719H30.3272L27.0043 11.891L23.847 0.511719H19.123L24.6423 19.4882H29.2053L32.4288 8.35981L35.6287 19.4882H40.2154L45.7393 0.511719H40.9822L37.8297 11.891Z" fill="white"/>
<path d="M82.5992 8.26514L73.1796 19.4882H69.478V0.511719H74.0032V11.4366L83.4228 0.511719H87.1244V19.4882H82.5992V8.26514Z" fill="white"/>
<path d="M91.4175 4.68664H97.4527V19.4882H101.978V4.68664H108.008V0.511719H91.4175V4.68664Z" fill="white"/>
<path d="M124.793 0.511719L120.112 8.63908L115.407 0.511719H110.37L117.849 13.4436V19.4882H122.374V13.3915L130 0.511719H124.793Z" fill="white"/>
<path d="M64.1811 0.511719H49.6162V4.68663H64.1811V0.511719Z" fill="white"/>
<path d="M64.1811 7.91504H49.6162V12.09H64.1811V7.91504Z" fill="white"/>
<path d="M64.1811 15.3135H49.6162V19.4884H64.1811V15.3135Z" fill="white"/>
</svg>
